<mxfile host="app.diagrams.net" agent="Mozilla/5.0 (X11; Linux x86_64) AppleWebKit/537.36 (KHTML, like Gecko) Chrome/128.0.0.0 Safari/537.36" version="24.7.14">
  <diagram name="第 1 页" id="bCmuPGX7h13g6_za2nbn">
    <mxGraphModel dx="2010" dy="1112" grid="0" gridSize="10" guides="1" tooltips="1" connect="1" arrows="1" fold="1" page="1" pageScale="1" pageWidth="827" pageHeight="1169" math="0" shadow="0">
      <root>
        <mxCell id="0" />
        <mxCell id="1" parent="0" />
        <mxCell id="jpBft1DfQ4YbkbR4en40-65" value="" style="rounded=0;whiteSpace=wrap;html=1;" vertex="1" parent="1">
          <mxGeometry x="161" y="132" width="466" height="386" as="geometry" />
        </mxCell>
        <mxCell id="jpBft1DfQ4YbkbR4en40-28" value="" style="rounded=0;whiteSpace=wrap;html=1;" vertex="1" parent="1">
          <mxGeometry x="161" y="540" width="161" height="283" as="geometry" />
        </mxCell>
        <mxCell id="jpBft1DfQ4YbkbR4en40-18" value="" style="edgeStyle=orthogonalEdgeStyle;rounded=0;orthogonalLoop=1;jettySize=auto;html=1;" edge="1" parent="1" source="jpBft1DfQ4YbkbR4en40-4" target="jpBft1DfQ4YbkbR4en40-17">
          <mxGeometry relative="1" as="geometry" />
        </mxCell>
        <mxCell id="jpBft1DfQ4YbkbR4en40-4" value="socketChannel" style="rounded=1;whiteSpace=wrap;html=1;" vertex="1" parent="1">
          <mxGeometry x="181" y="376" width="111" height="44" as="geometry" />
        </mxCell>
        <mxCell id="jpBft1DfQ4YbkbR4en40-22" style="edgeStyle=orthogonalEdgeStyle;rounded=0;orthogonalLoop=1;jettySize=auto;html=1;" edge="1" parent="1" source="jpBft1DfQ4YbkbR4en40-6" target="jpBft1DfQ4YbkbR4en40-20">
          <mxGeometry relative="1" as="geometry" />
        </mxCell>
        <mxCell id="jpBft1DfQ4YbkbR4en40-6" value="socketChannel" style="rounded=1;whiteSpace=wrap;html=1;" vertex="1" parent="1">
          <mxGeometry x="479" y="374" width="111" height="44" as="geometry" />
        </mxCell>
        <mxCell id="jpBft1DfQ4YbkbR4en40-21" style="edgeStyle=orthogonalEdgeStyle;rounded=0;orthogonalLoop=1;jettySize=auto;html=1;" edge="1" parent="1" source="jpBft1DfQ4YbkbR4en40-10" target="jpBft1DfQ4YbkbR4en40-19">
          <mxGeometry relative="1" as="geometry" />
        </mxCell>
        <mxCell id="jpBft1DfQ4YbkbR4en40-10" value="socketChannel" style="rounded=1;whiteSpace=wrap;html=1;" vertex="1" parent="1">
          <mxGeometry x="330" y="376" width="111" height="44" as="geometry" />
        </mxCell>
        <mxCell id="jpBft1DfQ4YbkbR4en40-14" style="edgeStyle=orthogonalEdgeStyle;rounded=0;orthogonalLoop=1;jettySize=auto;html=1;entryX=0.5;entryY=0;entryDx=0;entryDy=0;curved=1;exitX=0.5;exitY=1;exitDx=0;exitDy=0;" edge="1" parent="1" source="jpBft1DfQ4YbkbR4en40-13" target="jpBft1DfQ4YbkbR4en40-4">
          <mxGeometry relative="1" as="geometry" />
        </mxCell>
        <mxCell id="jpBft1DfQ4YbkbR4en40-51" value="OP_READ" style="edgeLabel;html=1;align=center;verticalAlign=middle;resizable=0;points=[];" vertex="1" connectable="0" parent="jpBft1DfQ4YbkbR4en40-14">
          <mxGeometry x="0.198" y="1" relative="1" as="geometry">
            <mxPoint as="offset" />
          </mxGeometry>
        </mxCell>
        <mxCell id="jpBft1DfQ4YbkbR4en40-15" style="edgeStyle=orthogonalEdgeStyle;rounded=0;orthogonalLoop=1;jettySize=auto;html=1;" edge="1" parent="1" source="jpBft1DfQ4YbkbR4en40-13" target="jpBft1DfQ4YbkbR4en40-10">
          <mxGeometry relative="1" as="geometry" />
        </mxCell>
        <mxCell id="jpBft1DfQ4YbkbR4en40-16" style="edgeStyle=orthogonalEdgeStyle;rounded=0;orthogonalLoop=1;jettySize=auto;html=1;curved=1;" edge="1" parent="1" target="jpBft1DfQ4YbkbR4en40-6">
          <mxGeometry relative="1" as="geometry">
            <mxPoint x="386" y="325" as="sourcePoint" />
            <Array as="points">
              <mxPoint x="386" y="344" />
              <mxPoint x="535" y="344" />
            </Array>
          </mxGeometry>
        </mxCell>
        <mxCell id="jpBft1DfQ4YbkbR4en40-52" value="OP_READ" style="edgeLabel;html=1;align=center;verticalAlign=middle;resizable=0;points=[];" vertex="1" connectable="0" parent="jpBft1DfQ4YbkbR4en40-16">
          <mxGeometry x="0.0707" y="-4" relative="1" as="geometry">
            <mxPoint as="offset" />
          </mxGeometry>
        </mxCell>
        <mxCell id="jpBft1DfQ4YbkbR4en40-13" value="selector" style="ellipse;whiteSpace=wrap;html=1;fillColor=#d5e8d4;strokeColor=#82b366;" vertex="1" parent="1">
          <mxGeometry x="328" y="281" width="115" height="42" as="geometry" />
        </mxCell>
        <mxCell id="jpBft1DfQ4YbkbR4en40-17" value="buffer" style="rounded=1;whiteSpace=wrap;html=1;" vertex="1" parent="1">
          <mxGeometry x="181" y="462" width="111" height="44" as="geometry" />
        </mxCell>
        <mxCell id="jpBft1DfQ4YbkbR4en40-19" value="buffer" style="rounded=1;whiteSpace=wrap;html=1;" vertex="1" parent="1">
          <mxGeometry x="330" y="459" width="111" height="44" as="geometry" />
        </mxCell>
        <mxCell id="jpBft1DfQ4YbkbR4en40-20" value="buffer" style="rounded=1;whiteSpace=wrap;html=1;" vertex="1" parent="1">
          <mxGeometry x="479" y="459" width="111" height="44" as="geometry" />
        </mxCell>
        <mxCell id="jpBft1DfQ4YbkbR4en40-23" value="" style="endArrow=none;dashed=1;html=1;rounded=0;" edge="1" parent="1">
          <mxGeometry width="50" height="50" relative="1" as="geometry">
            <mxPoint x="126" y="528" as="sourcePoint" />
            <mxPoint x="681" y="525" as="targetPoint" />
          </mxGeometry>
        </mxCell>
        <mxCell id="jpBft1DfQ4YbkbR4en40-27" style="edgeStyle=orthogonalEdgeStyle;rounded=0;orthogonalLoop=1;jettySize=auto;html=1;entryX=0.5;entryY=1;entryDx=0;entryDy=0;" edge="1" parent="1" source="jpBft1DfQ4YbkbR4en40-25" target="jpBft1DfQ4YbkbR4en40-26">
          <mxGeometry relative="1" as="geometry" />
        </mxCell>
        <mxCell id="jpBft1DfQ4YbkbR4en40-25" value="socketChannel" style="rounded=1;whiteSpace=wrap;html=1;" vertex="1" parent="1">
          <mxGeometry x="187" y="633" width="111" height="44" as="geometry" />
        </mxCell>
        <mxCell id="jpBft1DfQ4YbkbR4en40-26" value="buffer" style="rounded=1;whiteSpace=wrap;html=1;" vertex="1" parent="1">
          <mxGeometry x="187" y="551" width="111" height="44" as="geometry" />
        </mxCell>
        <mxCell id="jpBft1DfQ4YbkbR4en40-29" value="ClientA" style="text;html=1;align=center;verticalAlign=middle;resizable=0;points=[];autosize=1;strokeColor=none;fillColor=none;" vertex="1" parent="1">
          <mxGeometry x="213" y="781" width="57" height="26" as="geometry" />
        </mxCell>
        <mxCell id="jpBft1DfQ4YbkbR4en40-46" value="…………" style="text;html=1;align=center;verticalAlign=middle;resizable=0;points=[];autosize=1;strokeColor=none;fillColor=none;" vertex="1" parent="1">
          <mxGeometry x="354.5" y="599" width="66" height="26" as="geometry" />
        </mxCell>
        <mxCell id="jpBft1DfQ4YbkbR4en40-49" style="edgeStyle=orthogonalEdgeStyle;rounded=0;orthogonalLoop=1;jettySize=auto;html=1;exitX=0.5;exitY=1;exitDx=0;exitDy=0;" edge="1" parent="1" source="jpBft1DfQ4YbkbR4en40-47">
          <mxGeometry relative="1" as="geometry">
            <mxPoint x="386" y="278" as="targetPoint" />
          </mxGeometry>
        </mxCell>
        <mxCell id="jpBft1DfQ4YbkbR4en40-50" value="OP_ACEPT" style="edgeLabel;html=1;align=center;verticalAlign=middle;resizable=0;points=[];" vertex="1" connectable="0" parent="jpBft1DfQ4YbkbR4en40-49">
          <mxGeometry x="0.1335" relative="1" as="geometry">
            <mxPoint x="1" as="offset" />
          </mxGeometry>
        </mxCell>
        <mxCell id="jpBft1DfQ4YbkbR4en40-47" value="&lt;font style=&quot;font-size: 14px;&quot;&gt;serverSocketChannel&lt;/font&gt;" style="rounded=1;whiteSpace=wrap;html=1;fillColor=#dae8fc;strokeColor=#6c8ebf;" vertex="1" parent="1">
          <mxGeometry x="302" y="189" width="167" height="43" as="geometry" />
        </mxCell>
        <mxCell id="jpBft1DfQ4YbkbR4en40-54" style="edgeStyle=orthogonalEdgeStyle;rounded=0;orthogonalLoop=1;jettySize=auto;html=1;entryX=0.5;entryY=1;entryDx=0;entryDy=0;" edge="1" parent="1" source="jpBft1DfQ4YbkbR4en40-53" target="jpBft1DfQ4YbkbR4en40-25">
          <mxGeometry relative="1" as="geometry" />
        </mxCell>
        <mxCell id="jpBft1DfQ4YbkbR4en40-53" value="selector" style="ellipse;whiteSpace=wrap;html=1;fillColor=#d5e8d4;strokeColor=#82b366;" vertex="1" parent="1">
          <mxGeometry x="185" y="716" width="115" height="42" as="geometry" />
        </mxCell>
        <mxCell id="jpBft1DfQ4YbkbR4en40-55" value="" style="rounded=0;whiteSpace=wrap;html=1;" vertex="1" parent="1">
          <mxGeometry x="468" y="537" width="161" height="283" as="geometry" />
        </mxCell>
        <mxCell id="jpBft1DfQ4YbkbR4en40-56" style="edgeStyle=orthogonalEdgeStyle;rounded=0;orthogonalLoop=1;jettySize=auto;html=1;entryX=0.5;entryY=1;entryDx=0;entryDy=0;" edge="1" parent="1" source="jpBft1DfQ4YbkbR4en40-57" target="jpBft1DfQ4YbkbR4en40-58">
          <mxGeometry relative="1" as="geometry" />
        </mxCell>
        <mxCell id="jpBft1DfQ4YbkbR4en40-57" value="socketChannel" style="rounded=1;whiteSpace=wrap;html=1;" vertex="1" parent="1">
          <mxGeometry x="494" y="630" width="111" height="44" as="geometry" />
        </mxCell>
        <mxCell id="jpBft1DfQ4YbkbR4en40-58" value="buffer" style="rounded=1;whiteSpace=wrap;html=1;" vertex="1" parent="1">
          <mxGeometry x="494" y="548" width="111" height="44" as="geometry" />
        </mxCell>
        <mxCell id="jpBft1DfQ4YbkbR4en40-59" value="ClientC" style="text;html=1;align=center;verticalAlign=middle;resizable=0;points=[];autosize=1;strokeColor=none;fillColor=none;" vertex="1" parent="1">
          <mxGeometry x="520" y="778" width="57" height="26" as="geometry" />
        </mxCell>
        <mxCell id="jpBft1DfQ4YbkbR4en40-60" style="edgeStyle=orthogonalEdgeStyle;rounded=0;orthogonalLoop=1;jettySize=auto;html=1;entryX=0.5;entryY=1;entryDx=0;entryDy=0;" edge="1" parent="1" source="jpBft1DfQ4YbkbR4en40-61" target="jpBft1DfQ4YbkbR4en40-57">
          <mxGeometry relative="1" as="geometry" />
        </mxCell>
        <mxCell id="jpBft1DfQ4YbkbR4en40-61" value="selector" style="ellipse;whiteSpace=wrap;html=1;fillColor=#d5e8d4;strokeColor=#82b366;" vertex="1" parent="1">
          <mxGeometry x="492" y="713" width="115" height="42" as="geometry" />
        </mxCell>
        <mxCell id="jpBft1DfQ4YbkbR4en40-66" value="Server" style="text;html=1;align=center;verticalAlign=middle;resizable=0;points=[];autosize=1;strokeColor=none;fillColor=none;" vertex="1" parent="1">
          <mxGeometry x="354.5" y="143" width="53" height="26" as="geometry" />
        </mxCell>
      </root>
    </mxGraphModel>
  </diagram>
</mxfile>
